{
	"asset":{
		"generator":"Khronos glTF Blender I/O v4.3.47",
		"version":"2.0"
	},
	"scene":0,
	"scenes":[
		{
			"name":"Scene",
			"nodes":[
				0
			]
		}
	],
	"nodes":[
		{
			"mesh":0,
			"name":"node0"
		}
	],
	"materials":[
		{
			"doubleSided":true,
			"name":"base_link",
			"pbrMetallicRoughness":{
				"baseColorFactor":[
					0.0860000029206276,
					0.0860000029206276,
					0.0860000029206276,
					1
				],
				"metallicFactor":0,
				"roughnessFactor":0.5
			}
		}
	],
	"meshes":[
		{
			"name":"base_link",
			"primitives":[
				{
					"attributes":{
						"POSITION":0,
						"NORMAL":1
					},
					"indices":2,
					"material":0
				}
			]
		}
	],
	"accessors":[
		{
			"bufferView":0,
			"componentType":5126,
			"count":6307,
			"max":[
				0.05400000140070915,
				0.05779999867081642,
				0.05900000035762787
			],
			"min":[
				-0.05400000140070915,
				-2.1606678946017865e-10,
				-0.05900000035762787
			],
			"type":"VEC3"
		},
		{
			"bufferView":1,
			"componentType":5126,
			"count":6307,
			"type":"VEC3"
		},
		{
			"bufferView":2,
			"componentType":5123,
			"count":10986,
			"type":"SCALAR"
		}
	],
	"bufferViews":[
		{
			"buffer":0,
			"byteLength":75684,
			"byteOffset":0,
			"target":34962
		},
		{
			"buffer":0,
			"byteLength":75684,
			"byteOffset":75684,
			"target":34962
		},
		{
			"buffer":0,
			"byteLength":21972,
			"byteOffset":151368,
			"target":34963
		}
	],
	"buffers":[
		{
			"byteLength":173340,
			"uri":"base_link.bin"
		}
	]
}
