{
	"asset":{
		"generator":"Khronos glTF Blender I/O v4.3.47",
		"version":"2.0"
	},
	"scene":0,
	"scenes":[
		{
			"name":"Scene",
			"nodes":[
				0
			]
		}
	],
	"nodes":[
		{
			"mesh":0,
			"name":"node0.001",
			"rotation":[
				0,
				0.7071068286895752,
				0,
				0.7071067094802856
			],
			"scale":[
				1000.0001220703125,
				1000,
				1000.0001220703125
			],
			"translation":[
				0,
				0.05180000141263008,
				0
			]
		}
	],
	"materials":[
		{
			"doubleSided":true,
			"name":"Link1",
			"pbrMetallicRoughness":{
				"baseColorFactor":[
					0.0860000029206276,
					0.0860000029206276,
					0.0860000029206276,
					1
				],
				"metallicFactor":0,
				"roughnessFactor":0.5
			}
		}
	],
	"meshes":[
		{
			"name":"Link1",
			"primitives":[
				{
					"attributes":{
						"POSITION":0,
						"NORMAL":1
					},
					"indices":2,
					"material":0
				}
			]
		}
	],
	"accessors":[
		{
			"bufferView":0,
			"componentType":5126,
			"count":87276,
			"max":[
				4.950000220560469e-05,
				6.930000381544232e-05,
				4.945986074744724e-05
			],
			"min":[
				-5.2999999752501026e-05,
				1.442432111253833e-12,
				-4.945986074744724e-05
			],
			"type":"VEC3"
		},
		{
			"bufferView":1,
			"componentType":5126,
			"count":87276,
			"type":"VEC3"
		},
		{
			"bufferView":2,
			"componentType":5125,
			"count":101850,
			"type":"SCALAR"
		}
	],
	"bufferViews":[
		{
			"buffer":0,
			"byteLength":1047312,
			"byteOffset":0,
			"target":34962
		},
		{
			"buffer":0,
			"byteLength":1047312,
			"byteOffset":1047312,
			"target":34962
		},
		{
			"buffer":0,
			"byteLength":407400,
			"byteOffset":2094624,
			"target":34963
		}
	],
	"buffers":[
		{
			"byteLength":2502024,
			"uri":"link1.bin"
		}
	]
}
