{
	"asset":{
		"generator":"Khronos glTF Blender I/O v4.3.47",
		"version":"2.0"
	},
	"scene":0,
	"scenes":[
		{
			"name":"Scene",
			"nodes":[
				0
			]
		}
	],
	"nodes":[
		{
			"mesh":0,
			"name":"node0.001",
			"translation":[
				0,
				-0.140174999833107,
				0
			]
		}
	],
	"materials":[
		{
			"doubleSided":true,
			"name":"Link4",
			"pbrMetallicRoughness":{
				"baseColorFactor":[
					0.0860000029206276,
					0.0860000029206276,
					0.0860000029206276,
					1
				],
				"metallicFactor":0,
				"roughnessFactor":0.5
			}
		}
	],
	"meshes":[
		{
			"name":"Link4",
			"primitives":[
				{
					"attributes":{
						"POSITION":0,
						"NORMAL":1
					},
					"indices":2,
					"material":0
				}
			]
		}
	],
	"accessors":[
		{
			"bufferView":0,
			"componentType":5126,
			"count":25494,
			"max":[
				0.026900000870227814,
				0.15049999952316284,
				0.01299999002367258
			],
			"min":[
				-0.025700001046061516,
				-0.0005000032833777368,
				-0.012100000865757465
			],
			"type":"VEC3"
		},
		{
			"bufferView":1,
			"componentType":5126,
			"count":25494,
			"type":"VEC3"
		},
		{
			"bufferView":2,
			"componentType":5123,
			"count":46170,
			"type":"SCALAR"
		}
	],
	"bufferViews":[
		{
			"buffer":0,
			"byteLength":305928,
			"byteOffset":0,
			"target":34962
		},
		{
			"buffer":0,
			"byteLength":305928,
			"byteOffset":305928,
			"target":34962
		},
		{
			"buffer":0,
			"byteLength":92340,
			"byteOffset":611856,
			"target":34963
		}
	],
	"buffers":[
		{
			"byteLength":704196,
			"uri":"link4.bin"
		}
	]
}
