{
	"asset":{
		"generator":"Khronos glTF Blender I/O v4.3.47",
		"version":"2.0"
	},
	"scene":0,
	"scenes":[
		{
			"name":"Scene",
			"nodes":[
				0
			]
		}
	],
	"nodes":[
		{
			"mesh":0,
			"name":"node0"
		}
	],
	"materials":[
		{
			"doubleSided":true,
			"name":"Link3",
			"pbrMetallicRoughness":{
				"baseColorFactor":[
					0.0860000029206276,
					0.0860000029206276,
					0.0860000029206276,
					1
				],
				"metallicFactor":0,
				"roughnessFactor":0.5
			}
		}
	],
	"meshes":[
		{
			"name":"Link3",
			"primitives":[
				{
					"attributes":{
						"POSITION":0,
						"NORMAL":1
					},
					"indices":2,
					"material":0
				}
			]
		}
	],
	"accessors":[
		{
			"bufferView":0,
			"componentType":5126,
			"count":19411,
			"max":[
				0.030500007793307304,
				0.06170001998543739,
				0.003000000026077032
			],
			"min":[
				-0.033500004559755325,
				-0.015799999237060547,
				-0.07200000435113907
			],
			"type":"VEC3"
		},
		{
			"bufferView":1,
			"componentType":5126,
			"count":19411,
			"type":"VEC3"
		},
		{
			"bufferView":2,
			"componentType":5123,
			"count":34209,
			"type":"SCALAR"
		}
	],
	"bufferViews":[
		{
			"buffer":0,
			"byteLength":232932,
			"byteOffset":0,
			"target":34962
		},
		{
			"buffer":0,
			"byteLength":232932,
			"byteOffset":232932,
			"target":34962
		},
		{
			"buffer":0,
			"byteLength":68418,
			"byteOffset":465864,
			"target":34963
		}
	],
	"buffers":[
		{
			"byteLength":534284,
			"uri":"link3.bin"
		}
	]
}
