{
	"asset":{
		"generator":"Khronos glTF Blender I/O v4.3.47",
		"version":"2.0"
	},
	"scene":0,
	"scenes":[
		{
			"name":"Scene",
			"nodes":[
				0
			]
		}
	],
	"nodes":[
		{
			"mesh":0,
			"name":"node0"
		}
	],
	"materials":[
		{
			"doubleSided":true,
			"name":"Link7_2",
			"pbrMetallicRoughness":{
				"baseColorFactor":[
					0.0860000029206276,
					0.0860000029206276,
					0.0860000029206276,
					1
				],
				"metallicFactor":0,
				"roughnessFactor":0.5
			}
		}
	],
	"meshes":[
		{
			"name":"Link7_2",
			"primitives":[
				{
					"attributes":{
						"POSITION":0,
						"NORMAL":1
					},
					"indices":2,
					"material":0
				}
			]
		}
	],
	"accessors":[
		{
			"bufferView":0,
			"componentType":5126,
			"count":3497,
			"max":[
				0.020999999716877937,
				0.012999999336898327,
				0.054999999701976776
			],
			"min":[
				1.2153070216847084e-10,
				-0.012999999336898327,
				-0.007000001147389412
			],
			"type":"VEC3"
		},
		{
			"bufferView":1,
			"componentType":5126,
			"count":3497,
			"type":"VEC3"
		},
		{
			"bufferView":2,
			"componentType":5123,
			"count":5448,
			"type":"SCALAR"
		}
	],
	"bufferViews":[
		{
			"buffer":0,
			"byteLength":41964,
			"byteOffset":0,
			"target":34962
		},
		{
			"buffer":0,
			"byteLength":41964,
			"byteOffset":41964,
			"target":34962
		},
		{
			"buffer":0,
			"byteLength":10896,
			"byteOffset":83928,
			"target":34963
		}
	],
	"buffers":[
		{
			"byteLength":94824,
			"uri":"Link7_2.bin"
		}
	]
}
