{
	"asset":{
		"generator":"Khronos glTF Blender I/O v4.3.47",
		"version":"2.0"
	},
	"scene":0,
	"scenes":[
		{
			"name":"Scene",
			"nodes":[
				0
			]
		}
	],
	"nodes":[
		{
			"mesh":0,
			"name":"node0"
		}
	],
	"materials":[
		{
			"doubleSided":true,
			"name":"Link5",
			"pbrMetallicRoughness":{
				"baseColorFactor":[
					0.0860000029206276,
					0.0860000029206276,
					0.0860000029206276,
					1
				],
				"metallicFactor":0,
				"roughnessFactor":0.5
			}
		}
	],
	"meshes":[
		{
			"name":"Link5",
			"primitives":[
				{
					"attributes":{
						"POSITION":0,
						"NORMAL":1
					},
					"indices":2,
					"material":0
				}
			]
		}
	],
	"accessors":[
		{
			"bufferView":0,
			"componentType":5126,
			"count":18130,
			"max":[
				0.02834959328174591,
				0.03759999945759773,
				0.08650000393390656
			],
			"min":[
				-0.025824498385190964,
				-0.020400000736117363,
				-0.002999998861923814
			],
			"type":"VEC3"
		},
		{
			"bufferView":1,
			"componentType":5126,
			"count":18130,
			"type":"VEC3"
		},
		{
			"bufferView":2,
			"componentType":5123,
			"count":31665,
			"type":"SCALAR"
		}
	],
	"bufferViews":[
		{
			"buffer":0,
			"byteLength":217560,
			"byteOffset":0,
			"target":34962
		},
		{
			"buffer":0,
			"byteLength":217560,
			"byteOffset":217560,
			"target":34962
		},
		{
			"buffer":0,
			"byteLength":63330,
			"byteOffset":435120,
			"target":34963
		}
	],
	"buffers":[
		{
			"byteLength":498452,
			"uri":"link5.bin"
		}
	]
}
