{
	"asset":{
		"generator":"Khronos glTF Blender I/O v4.3.47",
		"version":"2.0"
	},
	"scene":0,
	"scenes":[
		{
			"name":"Scene",
			"nodes":[
				0
			]
		}
	],
	"nodes":[
		{
			"mesh":0,
			"name":"node0"
		}
	],
	"materials":[
		{
			"doubleSided":true,
			"name":"Link6",
			"pbrMetallicRoughness":{
				"baseColorFactor":[
					0.0860000029206276,
					0.0860000029206276,
					0.0860000029206276,
					1
				],
				"metallicFactor":0,
				"roughnessFactor":0.5
			}
		}
	],
	"meshes":[
		{
			"name":"Link6",
			"primitives":[
				{
					"attributes":{
						"POSITION":0,
						"NORMAL":1
					},
					"indices":2,
					"material":0
				}
			]
		}
	],
	"accessors":[
		{
			"bufferView":0,
			"componentType":5126,
			"count":18626,
			"max":[
				0.06600973010063171,
				0.03755727782845497,
				0.07609999924898148
			],
			"min":[
				-0.06600924581289291,
				-0.01895727962255478,
				-0.0005000001983717084
			],
			"type":"VEC3"
		},
		{
			"bufferView":1,
			"componentType":5126,
			"count":18626,
			"type":"VEC3"
		},
		{
			"bufferView":2,
			"componentType":5123,
			"count":34206,
			"type":"SCALAR"
		}
	],
	"bufferViews":[
		{
			"buffer":0,
			"byteLength":223512,
			"byteOffset":0,
			"target":34962
		},
		{
			"buffer":0,
			"byteLength":223512,
			"byteOffset":223512,
			"target":34962
		},
		{
			"buffer":0,
			"byteLength":68412,
			"byteOffset":447024,
			"target":34963
		}
	],
	"buffers":[
		{
			"byteLength":515436,
			"uri":"link6.bin"
		}
	]
}
