{
	"asset":{
		"generator":"Khronos glTF Blender I/O v4.3.47",
		"version":"2.0"
	},
	"scene":0,
	"scenes":[
		{
			"name":"Scene",
			"nodes":[
				0
			]
		}
	],
	"nodes":[
		{
			"mesh":0,
			"name":"node0"
		}
	],
	"materials":[
		{
			"doubleSided":true,
			"name":"Link2",
			"pbrMetallicRoughness":{
				"baseColorFactor":[
					0.0860000029206276,
					0.0860000029206276,
					0.0860000029206276,
					1
				],
				"metallicFactor":0,
				"roughnessFactor":0.5
			}
		}
	],
	"meshes":[
		{
			"name":"Link2",
			"primitives":[
				{
					"attributes":{
						"POSITION":0,
						"NORMAL":1
					},
					"indices":2,
					"material":0
				}
			]
		}
	],
	"accessors":[
		{
			"bufferView":0,
			"componentType":5126,
			"count":108083,
			"max":[
				0.030499998480081558,
				0.2822999954223633,
				0.020200001075863838
			],
			"min":[
				-0.030500002205371857,
				-0.002999998861923814,
				-0.02199999988079071
			],
			"type":"VEC3"
		},
		{
			"bufferView":1,
			"componentType":5126,
			"count":108083,
			"type":"VEC3"
		},
		{
			"bufferView":2,
			"componentType":5125,
			"count":128280,
			"type":"SCALAR"
		}
	],
	"bufferViews":[
		{
			"buffer":0,
			"byteLength":1296996,
			"byteOffset":0,
			"target":34962
		},
		{
			"buffer":0,
			"byteLength":1296996,
			"byteOffset":1296996,
			"target":34962
		},
		{
			"buffer":0,
			"byteLength":513120,
			"byteOffset":2593992,
			"target":34963
		}
	],
	"buffers":[
		{
			"byteLength":3107112,
			"uri":"link2.bin"
		}
	]
}
